<mxfile host="app.diagrams.net" modified="2020-09-02T09:51:29.648Z" agent="5.0 (Macintosh; Intel Mac OS X 10_14_6) AppleWebKit/537.36 (KHTML, like Gecko) Chrome/84.0.4147.105 Safari/537.36" etag="xdOIuI2MOqd5EFcV7w5v" version="13.6.6" type="github">
  <diagram id="ZxbKsRTdsbTPOz-4aiGz" name="Page-1">
    <mxGraphModel dx="1426" dy="771" grid="1" gridSize="10" guides="1" tooltips="1" connect="1" arrows="1" fold="1" page="1" pageScale="1" pageWidth="827" pageHeight="1169" math="0" shadow="0">
      <root>
        <mxCell id="0" />
        <mxCell id="1" parent="0" />
        <mxCell id="G66WI_eh3q2Sm0LIqgCq-1" value="cnt" style="rounded=0;whiteSpace=wrap;html=1;" vertex="1" parent="1">
          <mxGeometry x="140" y="250" width="60" height="40" as="geometry" />
        </mxCell>
        <mxCell id="G66WI_eh3q2Sm0LIqgCq-2" value="s1" style="rounded=0;whiteSpace=wrap;html=1;" vertex="1" parent="1">
          <mxGeometry x="200" y="250" width="60" height="40" as="geometry" />
        </mxCell>
        <mxCell id="G66WI_eh3q2Sm0LIqgCq-3" value="cd2" style="rounded=0;whiteSpace=wrap;html=1;" vertex="1" parent="1">
          <mxGeometry x="260" y="250" width="60" height="40" as="geometry" />
        </mxCell>
        <mxCell id="G66WI_eh3q2Sm0LIqgCq-4" value="s3" style="rounded=0;whiteSpace=wrap;html=1;" vertex="1" parent="1">
          <mxGeometry x="320" y="250" width="60" height="40" as="geometry" />
        </mxCell>
        <mxCell id="G66WI_eh3q2Sm0LIqgCq-5" value="distinct col2" style="rounded=0;whiteSpace=wrap;html=1;fillColor=#CCCCCC;" vertex="1" parent="1">
          <mxGeometry x="380" y="250" width="60" height="40" as="geometry" />
        </mxCell>
        <mxCell id="G66WI_eh3q2Sm0LIqgCq-8" value="old0" style="rounded=0;whiteSpace=wrap;html=1;" vertex="1" parent="1">
          <mxGeometry x="140" y="360" width="60" height="40" as="geometry" />
        </mxCell>
        <mxCell id="G66WI_eh3q2Sm0LIqgCq-9" value="old1" style="rounded=0;whiteSpace=wrap;html=1;" vertex="1" parent="1">
          <mxGeometry x="200" y="360" width="60" height="40" as="geometry" />
        </mxCell>
        <mxCell id="G66WI_eh3q2Sm0LIqgCq-10" value="old2" style="rounded=0;whiteSpace=wrap;html=1;" vertex="1" parent="1">
          <mxGeometry x="260" y="360" width="60" height="40" as="geometry" />
        </mxCell>
        <mxCell id="G66WI_eh3q2Sm0LIqgCq-11" value="old3" style="rounded=0;whiteSpace=wrap;html=1;" vertex="1" parent="1">
          <mxGeometry x="320" y="360" width="60" height="40" as="geometry" />
        </mxCell>
        <mxCell id="G66WI_eh3q2Sm0LIqgCq-12" value="new0" style="rounded=0;whiteSpace=wrap;html=1;" vertex="1" parent="1">
          <mxGeometry x="140" y="430" width="60" height="40" as="geometry" />
        </mxCell>
        <mxCell id="G66WI_eh3q2Sm0LIqgCq-13" value="new1" style="rounded=0;whiteSpace=wrap;html=1;" vertex="1" parent="1">
          <mxGeometry x="200" y="430" width="60" height="40" as="geometry" />
        </mxCell>
        <mxCell id="G66WI_eh3q2Sm0LIqgCq-14" value="new2" style="rounded=0;whiteSpace=wrap;html=1;" vertex="1" parent="1">
          <mxGeometry x="260" y="430" width="60" height="40" as="geometry" />
        </mxCell>
        <mxCell id="G66WI_eh3q2Sm0LIqgCq-15" value="new3" style="rounded=0;whiteSpace=wrap;html=1;" vertex="1" parent="1">
          <mxGeometry x="320" y="430" width="60" height="40" as="geometry" />
        </mxCell>
        <mxCell id="G66WI_eh3q2Sm0LIqgCq-16" value="new4" style="rounded=0;whiteSpace=wrap;html=1;fillColor=#B3B3B3;" vertex="1" parent="1">
          <mxGeometry x="380" y="430" width="60" height="40" as="geometry" />
        </mxCell>
        <mxCell id="G66WI_eh3q2Sm0LIqgCq-17" value="distinct 1" style="rounded=0;whiteSpace=wrap;html=1;fillColor=#99FF99;" vertex="1" parent="1">
          <mxGeometry x="500" y="430" width="60" height="40" as="geometry" />
        </mxCell>
        <mxCell id="G66WI_eh3q2Sm0LIqgCq-18" value="distinct 0" style="rounded=0;whiteSpace=wrap;html=1;" vertex="1" parent="1">
          <mxGeometry x="440" y="430" width="60" height="40" as="geometry" />
        </mxCell>
        <mxCell id="G66WI_eh3q2Sm0LIqgCq-19" value="distinct 0" style="rounded=0;whiteSpace=wrap;html=1;" vertex="1" parent="1">
          <mxGeometry x="380" y="360" width="60" height="40" as="geometry" />
        </mxCell>
      </root>
    </mxGraphModel>
  </diagram>
</mxfile>
